<?xml version="1.0" encoding="UTF-8"?> <svg xmlns="http://www.w3.org/2000/svg" width="575" height="412" viewBox="0 0 575 412" fill="none"> <path d="M139.965 192.254C136.531 192.254 133.902 193.465 131.684 195.691C129.461 197.914 128.449 200.742 128.449 204.18C128.449 207.617 129.461 210.445 131.684 212.672C133.902 214.895 136.73 216.109 139.965 216.109C142.992 216.109 145.617 214.895 147.637 212.672C149.656 210.445 150.867 207.617 150.867 204.18C150.867 200.742 149.859 197.914 147.637 195.691C145.617 193.465 142.992 192.254 139.965 192.254Z" fill="#1940FF"></path> <path d="M194.695 110.984C194.695 114.219 195.707 117.051 197.727 119.273C199.746 121.496 202.168 122.711 205.398 122.914V99.0586C202.371 99.2617 199.746 100.473 197.727 102.695C195.707 105.121 194.695 107.75 194.695 110.984Z" fill="#1940FF"></path> <path d="M323.754 123.113C326.984 123.113 329.609 121.902 331.832 119.68C334.055 117.453 335.062 114.625 335.062 111.188C335.062 107.75 334.055 104.922 331.832 102.695C329.609 100.473 326.984 99.2617 323.754 99.2617C320.523 99.2617 317.898 100.473 315.676 102.695C313.453 104.922 312.441 107.75 312.441 111.188C312.441 114.625 313.453 117.453 315.676 119.68C317.898 121.902 320.523 123.113 323.754 123.113Z" fill="#1940FF"></path> <path d="M192.879 192.254C189.648 192.254 187.02 193.465 184.801 195.691C182.578 197.914 181.566 200.742 181.566 204.18C181.566 207.617 182.578 210.445 184.801 212.672C187.02 214.895 189.648 216.109 192.879 216.109C196.109 216.109 198.734 214.895 200.957 212.672C203.18 210.445 204.188 207.617 204.188 204.18C204.188 200.742 203.18 197.914 200.957 195.691C198.734 193.465 195.906 192.254 192.879 192.254Z" fill="#1940FF"></path> <path d="M368.992 198.52C369.801 197.711 370.203 196.902 370.203 195.691C370.203 194.68 369.801 193.668 368.992 193.062C368.184 192.453 367.176 192.051 365.965 192.051H354.25V199.734H365.965C367.176 199.734 368.184 199.328 368.992 198.52Z" fill="#1940FF"></path> <path d="M384.344 119.273C384.344 118.262 383.941 117.254 383.133 116.645C382.324 116.039 381.316 115.637 380.102 115.637H366.367V123.316H380.102C381.316 123.316 382.324 122.914 383.133 122.305C383.941 121.496 384.344 120.488 384.344 119.273Z" fill="#1940FF"></path> <path d="M381.312 105.324C382.121 104.516 382.523 103.707 382.523 102.496C382.523 101.484 382.121 100.473 381.312 99.8672C380.504 99.2617 379.496 98.8555 378.285 98.8555H366.57V106.539H378.285C379.496 106.539 380.504 106.133 381.312 105.324Z" fill="#1940FF"></path> <path d="M367.781 208.828H354.047V216.512H367.781C368.992 216.512 370.004 216.109 370.809 215.5C371.617 214.691 372.023 213.883 372.023 212.672C372.023 211.66 371.617 210.648 370.809 210.043C370.004 209.437 368.992 208.828 367.781 208.828Z" fill="#1940FF"></path> <path d="M216.508 99.0586V122.914C219.539 122.711 222.164 121.496 224.184 119.273C226.203 117.051 227.215 114.219 227.215 110.984C227.215 107.75 226.203 104.922 224.184 102.695C222.164 100.473 219.539 99.2617 216.508 99.0586Z" fill="#1940FF"></path> <path d="M306.184 210.246C306.184 208.629 305.578 207.414 304.363 206.402C303.152 205.395 301.535 204.785 299.516 204.785H290.832V215.703H299.719C301.738 215.703 303.355 215.098 304.566 214.086C305.578 213.277 306.184 211.863 306.184 210.246Z" fill="#1940FF"></path> <path d="M271.039 99.0586C267.605 99.0586 264.98 100.27 262.758 102.496C260.535 104.719 259.527 107.551 259.527 110.984C259.527 114.422 260.535 117.254 262.758 119.477C264.98 121.699 267.809 122.914 271.039 122.914C274.07 122.914 276.695 121.699 278.715 119.477C280.734 117.254 281.945 114.422 281.945 110.984C281.945 107.551 280.937 104.719 278.715 102.496C276.492 100.27 274.07 99.0586 271.039 99.0586Z" fill="#1940FF"></path> <path d="M424.738 123.113C427.969 123.113 430.594 121.902 432.816 119.68C435.039 117.453 436.047 114.625 436.047 111.188C436.047 107.75 435.039 104.922 432.816 102.695C430.594 100.473 427.969 99.2617 424.738 99.2617C421.504 99.2617 418.879 100.473 416.656 102.695C414.434 104.922 413.426 107.75 413.426 111.188C413.426 114.625 414.434 117.453 416.656 119.68C418.879 121.902 421.504 123.113 424.738 123.113Z" fill="#1940FF"></path> <path d="M501.688 300.207H324.562L339.102 306.27V317.391L296.488 299.195V289.086L339.102 270.895V281.809L323.953 288.078H489.566V238.953H501.688V300.207ZM290.832 182.754V194.883H300.93C305.98 194.883 310.02 196.297 313.047 199.129C316.078 201.957 317.695 205.598 317.695 210.246C317.695 214.895 316.078 218.535 313.047 221.363C310.02 224.195 305.98 225.609 300.93 225.609H279.52V182.754H290.832ZM265.184 129.785C262.355 127.359 260.539 124.328 259.121 120.285V149.191H248.016V89.7578H259.121V102.09C260.336 98.0469 262.355 94.8125 265.184 92.5898C268.008 90.1641 271.242 89.1523 274.879 89.1523C280.129 89.1523 284.57 91.375 288.004 95.6211C291.438 99.8672 293.254 105.121 293.254 111.391C293.254 117.656 291.438 122.914 288.004 127.156C284.57 131.402 280.129 133.629 274.879 133.629C271.242 133.223 268.008 132.012 265.184 129.785ZM264.98 220.152C261.547 224.395 257.105 226.621 251.852 226.621C248.016 226.621 244.785 225.406 242.16 223.184C239.332 220.758 237.516 217.727 236.102 213.684V242.59H224.992V182.754H236.102V195.082C237.312 191.039 239.332 187.805 242.16 185.582C244.984 183.156 248.215 182.145 251.852 182.145C257.105 182.145 261.547 184.367 264.98 188.613C268.414 192.859 270.23 198.117 270.23 204.383C270.23 210.648 268.617 215.703 264.98 220.152ZM216.508 148.992H205.398V133.223C199.141 133.02 193.687 130.797 189.445 126.551C185.203 122.305 183.184 117.051 183.184 110.984C183.184 104.719 185.203 99.6641 189.445 95.418C193.687 91.1758 198.937 88.9492 205.398 88.7461V70.957H216.508V88.7461C222.77 88.9492 228.223 91.1758 232.465 95.418C236.703 99.6641 238.727 104.922 238.727 110.984C238.727 117.254 236.703 122.305 232.465 126.551C228.223 130.797 222.973 133.02 216.508 133.223V148.992ZM209.035 220.152C204.594 224.395 199.141 226.621 192.676 226.621C186.215 226.621 180.758 224.395 176.316 220.152C171.871 215.906 169.855 210.648 169.855 204.383C169.855 198.117 172.078 192.859 176.316 188.613C180.758 184.367 186.215 182.145 192.676 182.145C199.141 182.145 204.594 184.367 209.035 188.613C213.48 192.859 215.496 198.117 215.496 204.383C215.496 210.648 213.48 215.703 209.035 220.152ZM151.676 132.414H131.48V89.7578H141.98V130.395L153.496 89.7578H173.691V132.617H163.188V92.1836L151.676 132.414ZM157.129 220.152C153.695 224.395 149.254 226.621 144.004 226.621C140.164 226.621 136.934 225.406 134.309 223.184C131.48 220.758 129.664 217.727 128.246 213.684V242.59H117.141V182.754H128.246V195.082C129.461 191.039 131.48 187.805 134.309 185.582C137.137 183.156 140.367 182.145 144.004 182.145C149.254 182.145 153.695 184.367 157.129 188.613C160.563 192.859 162.379 198.117 162.379 204.383C162.379 210.648 160.563 215.703 157.129 220.152ZM65.0352 132.414V74.3945H76.9492V121.902H103.812V74.3945H115.727V121.902H122.594V145.758H110.68V132.414H65.0352ZM94.9219 225.609V192.656H76.3438V225.609H65.2344V182.754H106.234V225.609H94.9219ZM332.641 225.609H321.531V182.754H332.641V225.609ZM307.395 95.2188C311.836 90.9727 317.289 88.7461 323.754 88.7461C330.215 88.7461 335.668 90.9727 340.113 95.2188C344.555 99.4609 346.574 104.719 346.574 110.984C346.574 117.254 344.355 122.508 340.113 126.754C335.668 131 330.215 133.223 323.754 133.223C317.289 133.223 311.836 131 307.395 126.754C302.949 122.508 300.93 117.254 300.93 110.984C300.93 104.719 303.152 99.4609 307.395 95.2188ZM380.102 207.617C381.922 209.437 382.93 211.863 382.93 214.691C382.93 217.926 381.516 220.555 378.891 222.578C376.266 224.598 372.832 225.609 368.387 225.609H343.547V182.754H366.367C370.609 182.754 374.246 183.762 376.871 185.785C379.496 187.805 380.91 190.434 380.91 193.668C380.91 196.094 380.102 198.316 378.688 200.137C377.074 201.957 375.051 203.172 372.227 203.977C375.66 204.586 378.285 205.598 380.102 207.617ZM356.066 89.7578H378.891C383.129 89.7578 386.766 90.7695 389.391 92.7891C392.02 94.8125 393.434 97.4414 393.434 100.676C393.434 103.102 392.621 105.324 391.211 107.145C389.594 108.965 387.574 110.176 384.746 110.984C388.18 111.391 390.805 112.602 392.621 114.422C394.441 116.242 395.453 118.668 395.453 121.496C395.453 124.73 394.039 127.359 391.414 129.383C388.785 131.402 385.352 132.414 380.91 132.414H356.066V89.7578ZM408.578 95.2188C413.023 90.9727 418.477 88.7461 424.938 88.7461C431.402 88.7461 436.855 90.9727 441.297 95.2188C445.742 99.4609 447.762 104.719 447.762 110.984C447.762 117.254 445.539 122.508 441.297 126.754C436.855 131 431.402 133.223 424.938 133.223C418.477 133.223 413.023 131 408.578 126.754C404.137 122.508 402.117 117.254 402.117 110.984C401.914 104.719 404.137 99.4609 408.578 95.2188ZM457.051 89.7578H467.555V130.395L479.066 89.7578H499.262V132.617H488.758V92.1836L477.246 132.414H457.051V89.7578ZM473.41 71.3633C473.41 75.4063 475.027 77.4258 478.055 77.4258C481.289 77.4258 482.902 75.4063 482.902 71.3633H491.789C491.789 75.6055 490.578 79.043 487.953 81.4688C485.531 83.8945 482.094 85.1094 478.055 85.1094C474.016 85.1094 470.785 83.8945 468.16 81.4688C465.734 79.043 464.324 75.6055 464.324 71.3633H473.41ZM548.746 0H26.2539C11.7148 0 0 11.7266 0 26.2812V276.555C0 291.109 11.7148 302.836 26.2539 302.836H172.684C180.559 302.836 186.816 309.102 186.816 316.984V385.719C186.816 400.273 198.535 412 213.074 412H548.746C563.285 412 575 400.273 575 385.719V26.2812C575 11.7266 563.285 0 548.746 0Z" fill="#1940FF"></path> <path d="M247.812 192.254C244.379 192.254 241.754 193.465 239.531 195.691C237.312 197.914 236.301 200.742 236.301 204.18C236.301 207.617 237.312 210.445 239.531 212.672C241.754 214.895 244.582 216.109 247.812 216.109C250.844 216.109 253.469 214.895 255.488 212.672C257.508 210.445 258.719 207.617 258.719 204.18C258.719 200.742 257.711 197.914 255.488 195.691C253.469 193.465 250.844 192.254 247.812 192.254Z" fill="#1940FF"></path> </svg> 